<svg width="50" height="50" viewBox="0 0 50 50" fill="none" xmlns="http://www.w3.org/2000/svg">
<g clip-path="url(#clip0)">
<path d="M22 8.33333H35.8889V13.8889H22V8.33333ZM13.6667 16.6667V0H44.2222V16.6667C46.4324 16.6667 48.552 17.5446 50.1148 19.1074C51.6776 20.6702 52.5556 22.7899 52.5556 25V41.6667H44.2222V50H13.6667V41.6667H10.8889V16.6667H13.6667ZM19.2222 5.55556V16.6667H38.6667V5.55556H19.2222ZM19.2222 33.3333V44.4444H38.6667V33.3333H19.2222ZM44.2222 22.2222C43.4855 22.2222 42.779 22.5149 42.258 23.0358C41.7371 23.5567 41.4444 24.2633 41.4444 25C41.4444 25.7367 41.7371 26.4432 42.258 26.9642C42.779 27.4851 43.4855 27.7778 44.2222 27.7778C44.9589 27.7778 45.6655 27.4851 46.1864 26.9642C46.7073 26.4432 47 25.7367 47 25C47 24.2633 46.7073 23.5567 46.1864 23.0358C45.6655 22.5149 44.9589 22.2222 44.2222 22.2222ZM2.55556 16.6667H5.33333C6.07005 16.6667 6.77658 16.9593 7.29752 17.4803C7.81845 18.0012 8.11111 18.7077 8.11111 19.4444V38.8889C8.11111 39.6256 7.81845 40.3321 7.29752 40.8531C6.77658 41.374 6.07005 41.6667 5.33333 41.6667H2.55556C1.08213 41.6667 -0.330947 41.0813 -1.37282 40.0395C-2.41468 38.9976 -3 37.5845 -3 36.1111V22.2222C-3 20.7488 -2.41468 19.3357 -1.37282 18.2939C-0.330947 17.252 1.08213 16.6667 2.55556 16.6667Z" fill="#F15A23"/>
</g>
<defs>
<clipPath id="clip0">
<rect width="50" height="50" fill="white"/>
</clipPath>
</defs>
</svg>
