<svg width="50" height="50" viewBox="0 0 50 50" fill="none" xmlns="http://www.w3.org/2000/svg">
<path d="M44.9034 8.3333C44.7141 8.31379 44.5233 8.31379 44.334 8.3333H5.4451C5.19585 8.33714 4.94826 8.37451 4.70898 8.44441L24.7784 28.4305L44.9034 8.3333Z" fill="#F15A23"/>
<path d="M46.9584 10.2639L26.7362 30.4028C26.2158 30.9202 25.5117 31.2106 24.7779 31.2106C24.044 31.2106 23.34 30.9202 22.8196 30.4028L2.77789 10.4167C2.71627 10.6431 2.68361 10.8765 2.68066 11.1111V38.8889C2.68066 39.6256 2.97332 40.3322 3.49426 40.8531C4.01519 41.374 4.72173 41.6667 5.45844 41.6667H44.3473C45.084 41.6667 45.7906 41.374 46.3115 40.8531C46.8325 40.3322 47.1251 39.6256 47.1251 38.8889V11.1111C47.1141 10.8218 47.0578 10.5359 46.9584 10.2639ZM7.36122 38.8889H5.43066V36.9028L15.5279 26.8889L17.4862 28.8472L7.36122 38.8889ZM44.3195 38.8889H42.3751L32.2501 28.8472L34.2084 26.8889L44.3057 36.9028L44.3195 38.8889Z" fill="#F15A23"/>
</svg>
