<svg width="50" height="50" viewBox="0 0 50 50" fill="none" xmlns="http://www.w3.org/2000/svg">
<g clip-path="url(#clip0)">
<path d="M32.4056 15.3133C32.4056 11.2312 29.0845 7.91016 25.0024 7.91016C20.9207 7.91016 17.5996 11.2312 17.5996 15.3133C17.5996 19.3951 20.9203 22.7161 25.0024 22.7161C29.0845 22.7161 32.4056 19.3951 32.4056 15.3133Z" fill="#F15A23"/>
<path d="M25.0024 41.2109C26.1495 39.7167 32.8748 30.4741 35.1388 27.3861C37.8316 23.7137 40.3158 20.0291 40.3158 15.3133C40.3158 6.85616 33.4596 0.00038147 25.0024 0.00038147L25.0005 0C16.5429 0 9.68945 6.85577 9.68945 15.313C9.68945 20.0287 12.1732 23.7137 14.866 27.3861C17.1304 30.4741 25.0024 41.2109 25.0024 41.2109ZM14.6699 15.3133C14.6699 9.61571 19.3052 4.98047 25.0024 4.98047C30.7 4.98047 35.3353 9.61571 35.3353 15.3133C35.3353 21.0106 30.7 25.6458 25.0024 25.6458C19.3052 25.6458 14.6699 21.0106 14.6699 15.3133Z" fill="#F15A23"/>
<path d="M30.6271 38.4964C30.3238 38.9107 24.9496 46.0922 24.9496 46.0922L19.3806 38.4964H12.6381L8.30078 50H41.7061L37.3684 38.4964H30.6271Z" fill="#F15A23"/>
</g>
<defs>
<clipPath id="clip0">
<rect width="50" height="50" fill="white"/>
</clipPath>
</defs>
</svg>
