<svg width="16" height="12" viewBox="0 0 16 12" fill="none" xmlns="http://www.w3.org/2000/svg">
<g clip-path="url(#clip0)">
<path d="M15.1651 8.0606e-07C15.0969 -0.00702185 15.0282 -0.00702185 14.9601 8.0606e-07H0.960068C0.87034 0.00138337 0.781207 0.0148375 0.695068 0.0400008L7.92007 7.235L15.1651 8.0606e-07Z" fill="#F15A23"/>
<path d="M15.9051 0.695L8.62509 7.945C8.43773 8.13125 8.18427 8.23579 7.92009 8.23579C7.6559 8.23579 7.40245 8.13125 7.21509 7.945L8.79169e-05 0.75C-0.0220924 0.83152 -0.0338528 0.915523 -0.0349121 1V11C-0.0349121 11.2652 0.0704447 11.5196 0.257981 11.7071C0.445517 11.8946 0.699871 12 0.965088 12H14.9651C15.2303 12 15.4847 11.8946 15.6722 11.7071C15.8597 11.5196 15.9651 11.2652 15.9651 11V1C15.9611 0.895827 15.9409 0.792917 15.9051 0.695ZM1.65009 11H0.955088V10.285L4.59009 6.68L5.29509 7.385L1.65009 11ZM14.9551 11H14.2551L10.6101 7.385L11.3151 6.68L14.9501 10.285L14.9551 11Z" fill="#F15A23"/>
</g>
<defs>
<clipPath id="clip0">
<rect width="16" height="12" fill="white"/>
</clipPath>
</defs>
</svg>
