<svg width="16" height="14" viewBox="0 0 16 14" fill="none" xmlns="http://www.w3.org/2000/svg">
<path d="M7 2.33333H10.8889V3.88889H7V2.33333ZM4.66667 4.66667V0H13.2222V4.66667C13.8411 4.66667 14.4346 4.9125 14.8721 5.35008C15.3097 5.78767 15.5556 6.38116 15.5556 7V11.6667H13.2222V14H4.66667V11.6667H3.88889V4.66667H4.66667ZM6.22222 1.55556V4.66667H11.6667V1.55556H6.22222ZM6.22222 9.33333V12.4444H11.6667V9.33333H6.22222ZM13.2222 6.22222C13.0159 6.22222 12.8181 6.30417 12.6722 6.45003C12.5264 6.59589 12.4444 6.79372 12.4444 7C12.4444 7.20628 12.5264 7.40411 12.6722 7.54997C12.8181 7.69583 13.0159 7.77778 13.2222 7.77778C13.4285 7.77778 13.6263 7.69583 13.7722 7.54997C13.9181 7.40411 14 7.20628 14 7C14 6.79372 13.9181 6.59589 13.7722 6.45003C13.6263 6.30417 13.4285 6.22222 13.2222 6.22222ZM1.55556 4.66667H2.33333C2.53961 4.66667 2.73744 4.74861 2.88331 4.89447C3.02917 5.04033 3.11111 5.23816 3.11111 5.44444V10.8889C3.11111 11.0952 3.02917 11.293 2.88331 11.4389C2.73744 11.5847 2.53961 11.6667 2.33333 11.6667H1.55556C1.143 11.6667 0.747335 11.5028 0.455612 11.2111C0.163888 10.9193 0 10.5237 0 10.1111V6.22222C0 5.80966 0.163888 5.414 0.455612 5.12228C0.747335 4.83056 1.143 4.66667 1.55556 4.66667Z" fill="#F15A23"/>
</svg>
