<svg width="17" height="20" viewBox="0 0 17 20" fill="none" xmlns="http://www.w3.org/2000/svg">
<path d="M4.03256 12.8674C4.03256 12.5352 3.80209 12.3372 3.39544 12.3372C3.22939 12.3372 3.11693 12.3535 3.05811 12.3692V13.4349C3.12775 13.4506 3.21337 13.4558 3.33139 13.4558C3.76484 13.4558 4.03256 13.2368 4.03256 12.8674Z" fill="white"/>
<path d="M6.55006 12.3483C6.36795 12.3483 6.25027 12.364 6.18066 12.3804V14.7405C6.25031 14.7568 6.36277 14.7568 6.46444 14.7568C7.20319 14.7621 7.685 14.3554 7.685 13.4938C7.69022 12.7445 7.25118 12.3483 6.55006 12.3483Z" fill="white"/>
<path d="M11.2271 0H3.1943C2.02078 0 1.06567 0.95578 1.06567 2.12863V9.99996H0.857759C0.384121 9.99996 0 10.3837 0 10.8578V16.0597C0 16.5337 0.384079 16.9175 0.857759 16.9175H1.06567V17.8713C1.06567 19.0455 2.02078 20 3.1943 20H14.1547C15.3275 20 16.2827 19.0454 16.2827 17.8713V5.03791L11.2271 0ZM2.25026 11.7965C2.50164 11.7541 2.85498 11.722 3.3528 11.722C3.85589 11.722 4.21446 11.8181 4.45539 12.011C4.68553 12.1927 4.84083 12.4928 4.84083 12.8459C4.84083 13.1989 4.72315 13.499 4.50902 13.7023C4.23051 13.9644 3.81864 14.0821 3.33683 14.0821C3.2296 14.0821 3.13349 14.0768 3.05832 14.0664V15.3563H2.25026V11.7965ZM14.1547 18.6964H3.1943C2.73991 18.6964 2.36989 18.3263 2.36989 17.8713V16.9175H12.5873C13.061 16.9175 13.4451 16.5337 13.4451 16.0597V10.8578C13.4451 10.3837 13.061 9.99996 12.5873 9.99996H2.36989V2.12863C2.36989 1.67491 2.73995 1.30489 3.1943 1.30489L10.7394 1.29701V4.08595C10.7394 4.90057 11.4004 5.56216 12.2156 5.56216L14.9477 5.55432L14.9784 17.8713C14.9784 18.3263 14.6091 18.6964 14.1547 18.6964ZM5.36189 15.34V11.7965C5.66159 11.7488 6.05223 11.722 6.46447 11.722C7.14958 11.722 7.59385 11.8449 7.94197 12.1071C8.31659 12.3856 8.55191 12.8295 8.55191 13.4669C8.55191 14.1573 8.30054 14.6339 7.95238 14.928C7.57253 15.2438 6.99432 15.3935 6.28792 15.3935C5.86489 15.3935 5.56519 15.3667 5.36189 15.34ZM11.2036 13.242V13.9056H9.90816V15.3563H9.08931V11.7488H11.2945V12.4176H9.90816V13.242H11.2036Z" fill="white"/>
</svg>
