<svg width="20" height="20" viewBox="0 0 20 20" fill="none" xmlns="http://www.w3.org/2000/svg">
<path d="M6.03256 12.8674C6.03256 12.5352 5.80209 12.3372 5.39544 12.3372C5.22939 12.3372 5.11693 12.3535 5.05811 12.3692V13.4349C5.12775 13.4506 5.21337 13.4558 5.33139 13.4558C5.76484 13.4558 6.03256 13.2368 6.03256 12.8674Z" fill="#F15A23"/>
<path d="M8.55006 12.3483C8.36795 12.3483 8.25027 12.364 8.18066 12.3804V14.7405C8.25031 14.7568 8.36277 14.7568 8.46444 14.7568C9.20319 14.7621 9.685 14.3554 9.685 13.4938C9.69022 12.7445 9.25118 12.3483 8.55006 12.3483Z" fill="#F15A23"/>
<path d="M13.2271 0H5.1943C4.02078 0 3.06567 0.95578 3.06567 2.12863V9.99996H2.85776C2.38412 9.99996 2 10.3837 2 10.8578V16.0597C2 16.5337 2.38408 16.9175 2.85776 16.9175H3.06567V17.8713C3.06567 19.0455 4.02078 20 5.1943 20H16.1547C17.3275 20 18.2827 19.0454 18.2827 17.8713V5.03791L13.2271 0ZM4.25026 11.7965C4.50164 11.7541 4.85498 11.722 5.3528 11.722C5.85589 11.722 6.21446 11.8181 6.45539 12.011C6.68553 12.1927 6.84083 12.4928 6.84083 12.8459C6.84083 13.1989 6.72315 13.499 6.50902 13.7023C6.23051 13.9644 5.81864 14.0821 5.33683 14.0821C5.2296 14.0821 5.13349 14.0768 5.05832 14.0664V15.3563H4.25026V11.7965ZM16.1547 18.6964H5.1943C4.73991 18.6964 4.36989 18.3263 4.36989 17.8713V16.9175H14.5873C15.061 16.9175 15.4451 16.5337 15.4451 16.0597V10.8578C15.4451 10.3837 15.061 9.99996 14.5873 9.99996H4.36989V2.12863C4.36989 1.67491 4.73995 1.30489 5.1943 1.30489L12.7394 1.29701V4.08595C12.7394 4.90057 13.4004 5.56216 14.2156 5.56216L16.9477 5.55432L16.9784 17.8713C16.9784 18.3263 16.6091 18.6964 16.1547 18.6964ZM7.36189 15.34V11.7965C7.66159 11.7488 8.05223 11.722 8.46447 11.722C9.14958 11.722 9.59385 11.8449 9.94197 12.1071C10.3166 12.3856 10.5519 12.8295 10.5519 13.4669C10.5519 14.1573 10.3005 14.6339 9.95238 14.928C9.57253 15.2438 8.99432 15.3935 8.28792 15.3935C7.86489 15.3935 7.56519 15.3667 7.36189 15.34ZM13.2036 13.242V13.9056H11.9082V15.3563H11.0893V11.7488H13.2945V12.4176H11.9082V13.242H13.2036Z" fill="#F15A23"/>
</svg>
