<svg width="14" height="14" viewBox="0 0 14 14" fill="none" xmlns="http://www.w3.org/2000/svg">
<path d="M13.6005 9.893L10.538 8.5805C10.4072 8.52475 10.2618 8.513 10.1237 8.54703C9.98562 8.58106 9.86232 8.65902 9.77238 8.76918L8.41613 10.4262C6.28762 9.42264 4.57467 7.70968 3.57109 5.58117L5.22813 4.22492C5.33851 4.13514 5.41663 4.01185 5.45067 3.8737C5.48472 3.73556 5.47283 3.59008 5.4168 3.45929L4.1043 0.396794C4.0428 0.255812 3.93405 0.140705 3.79678 0.0713211C3.65951 0.00193717 3.50233 -0.0173745 3.35234 0.0167159L0.508594 0.672966C0.363992 0.706358 0.234977 0.787777 0.142607 0.903934C0.0502374 1.02009 -3.33104e-05 1.16413 1.65599e-08 1.31254C1.65599e-08 8.32621 5.68477 14 12.6875 14C12.836 14.0001 12.9801 13.9499 13.0963 13.8575C13.2125 13.7651 13.2939 13.6361 13.3273 13.4914L13.9836 10.6477C14.0175 10.497 13.9977 10.3392 13.9278 10.2014C13.8579 10.0637 13.7422 9.95462 13.6005 9.893Z" fill="#F15A23"/>
</svg>
